# 3ds Max Wavefront OBJ Exporter v0.97b - (c)2007 guruware
# File Created: 10.11.2011 17:45:02

#
# object Box001
#

v  36.3113 108.2712 15.1817
v  36.3113 108.2712 -9.1133
v  -170.1962 108.2712 -9.1133
v  -170.1962 108.2712 15.1817
v  36.3113 -106.8408 -9.1133
v  -170.1962 -106.8408 15.1817
v  -170.1962 -106.8408 -9.1133
v  -143.6505 -106.8408 -9.1133
v  -143.6505 -106.8408 15.1817
v  36.3113 -106.8408 15.1817
v  9.7657 -106.8408 15.1817
v  9.7657 -106.8408 -9.1133
v  9.7657 86.0980 -9.1133
v  9.7657 86.0980 15.1817
v  -143.6505 86.0980 -9.1133
v  -143.6505 86.0980 15.1817
# 16 vertices

vn 0.0000 1.0000 -0.0000
vn 1.0000 0.0000 -0.0000
vn -1.0000 0.0000 -0.0000
vn 0.0000 -1.0000 0.0000
vn 0.0000 -0.0000 -1.0000
vn 0.0000 0.0000 1.0000
# 6 vertex normals

vt 0.0000 1.0000 0.0000
vt 0.0000 0.0000 0.0000
vt 1.0000 0.0000 0.0000
vt 1.0000 1.0000 0.0000
vt 0.1285 0.0000 0.0000
vt 0.1285 1.0000 0.0000
vt 0.8715 1.0000 0.0000
vt 0.8715 0.0000 0.0000
vt 0.8715 0.8969 0.0000
vt 0.1285 0.8969 0.0000
vt 0.0000 -0.0000 0.0000
vt 1.0000 -0.0000 0.0000
vt -0.0000 1.0000 0.0000
# 13 texture coords

g Box001
s 4
f 1/1/1 2/2/1 3/3/1 4/4/1 
s 16
f 1/4/2 5/2/2 2/1/2 
s 64
f 3/4/3 6/2/3 4/1/3 
s 2
f 7/2/4 8/5/4 9/6/4 6/1/4 
f 10/4/4 11/7/4 12/8/4 5/3/4 
s 8
f 13/9/5 5/3/5 12/8/5 
s 32
f 14/10/6 10/2/6 1/1/6 
s 1
f 15/4/2 9/11/2 8/3/2 
s 2
f 14/1/4 15/3/4 13/2/4 
s 1
f 14/4/3 12/2/3 11/12/3 
s 16
f 5/2/2 1/4/2 10/3/2 
s 64
f 6/2/3 3/4/3 7/3/3 
s 8
f 7/2/5 15/10/5 8/5/5 
f 3/1/5 15/10/5 7/2/5 
f 2/4/5 15/10/5 3/1/5 
f 2/4/5 13/9/5 15/10/5 
f 5/3/5 13/9/5 2/4/5 
s 32
f 16/9/6 6/3/6 9/8/6 
f 16/9/6 1/1/6 4/4/6 6/3/6 
f 14/10/6 1/1/6 16/9/6 
f 10/2/6 14/10/6 11/5/6 
s 1
f 9/11/2 15/4/2 16/13/2 
s 2
f 15/3/4 14/1/4 16/4/4 
s 1
f 12/2/3 14/4/3 13/1/3 
# 4 polygons - 20 triangles

