# 3ds Max Wavefront OBJ Exporter v0.97b - (c)2007 guruware
# File Created: 12.04.2013 17:00:23

#
# object Fenster1Gliedrig
#

v  -5.7405 27.4935 6.5000
v  33.5130 27.4935 6.5000
v  33.5130 27.4935 0.0000
v  -5.7405 27.4935 0.0000
v  -5.7405 -26.7987 6.5000
v  -5.7405 -26.7987 -0.0000
v  33.5130 -26.7987 6.5000
v  33.5130 -26.7987 -0.0000
v  -1.6622 -22.7204 6.5000
v  29.4348 -22.7204 6.5000
v  29.4348 -22.7204 -0.0000
v  -1.6622 -22.7204 -0.0000
v  -1.6622 23.4152 6.5000
v  -1.6622 23.4152 0.0000
v  29.4348 23.4152 6.5000
v  29.4348 23.4152 0.0000
v  30.8585 24.3298 3.1989
v  -2.5147 24.3298 3.1989
v  -2.5147 -23.7173 3.1989
v  30.8585 -23.7173 3.1989
# 20 vertices

vn 0.0000 1.0000 0.0000
vn -1.0000 0.0000 -0.0000
vn 0.0000 -1.0000 -0.0000
vn 1.0000 0.0000 -0.0000
vn 0.0000 0.0000 -1.0000
vn 0.0000 -0.0000 1.0000
# 6 vertex normals

g Fenster1Gliedrig
usemtl wire_145028177
s 1
f 1//1 2//1 3//1 4//1 
s 4
f 5//2 1//2 4//2 6//2 
s 2
f 7//3 5//3 6//3 8//3 
s 4
f 2//4 7//4 8//4 3//4 
s 1
f 9//1 10//1 11//1 12//1 
s 4
f 13//4 9//4 12//4 14//4 
s 2
f 15//3 13//3 14//3 16//3 
s 4
f 10//2 15//2 16//2 11//2 
s 16
f 14//5 12//5 6//5 4//5 
f 16//5 14//5 4//5 3//5 
f 6//5 12//5 11//5 8//5 
f 3//5 8//5 11//5 16//5 
f 9//6 13//6 1//6 5//6 
f 10//6 9//6 5//6 7//6 
f 10//6 7//6 2//6 15//6 
f 15//6 2//6 1//6 13//6 
s 1
f 17//6 18//6 19//6 20//6 
# 17 polygons

