# 3ds Max Wavefront OBJ Exporter v0.97b - (c)2007 guruware
# File Created: 12.04.2013 17:31:53

#
# object FensterJugendstil2Gliedrig
#

v  -60.0000 -110.0000 -0.0000
v  70.0000 -110.0000 -0.0000
v  70.0000 -110.0000 50.0000
v  -60.0000 -110.0000 50.0000
v  70.0000 53.8152 0.0000
v  70.0000 53.8152 50.0000
v  -60.0000 53.8152 0.0000
v  -60.0000 53.8152 50.0000
v  8.5000 -103.4202 10.0000
v  1.5000 -103.4202 10.0000
v  1.5000 46.8256 10.0000
v  8.5000 46.8256 10.0000
v  8.5000 -103.4202 40.0000
v  8.5000 46.8256 40.0000
v  1.5000 46.8256 40.0000
v  1.5000 -103.4202 40.0000
v  -60.0000 46.8185 10.0000
v  -60.0000 53.8185 10.0000
v  70.0000 53.8185 10.0000
v  70.0000 46.8185 10.0000
v  -60.0000 46.8185 40.0000
v  70.0000 46.8185 40.0000
v  70.0000 53.8185 40.0000
v  -60.0000 53.8185 40.0000
v  -60.0000 -109.9268 10.0000
v  -60.0000 -103.4362 10.0000
v  70.0000 -103.4362 10.0000
v  70.0000 -109.9268 10.0000
v  -60.0000 -109.9268 40.0000
v  70.0000 -109.9268 40.0000
v  70.0000 -103.4362 40.0000
v  -60.0000 -103.4362 40.0000
v  68.7148 62.1121 50.0000
v  70.4449 53.8418 50.0000
v  70.4449 53.8418 0.0000
v  68.7148 62.1121 0.0000
v  63.7873 69.7070 50.0000
v  63.7873 69.7070 0.0000
v  56.0571 76.4090 50.0000
v  56.0571 76.4090 0.0000
v  45.9188 82.0004 50.0000
v  45.9188 82.0004 0.0000
v  33.7668 86.2637 50.0000
v  33.7668 86.2637 0.0000
v  19.9956 88.9812 50.0000
v  19.9956 88.9812 0.0000
v  5.0000 89.9354 50.0000
v  5.0000 89.9354 0.0000
v  -9.9957 88.9812 50.0000
v  -9.9957 88.9812 0.0000
v  -23.7668 86.2637 50.0000
v  -23.7668 86.2637 0.0000
v  -35.9188 82.0004 50.0000
v  -35.9188 82.0004 0.0000
v  -46.0572 76.4090 50.0000
v  -46.0572 76.4090 0.0000
v  -53.7873 69.7070 50.0000
v  -53.7873 69.7070 0.0000
v  -58.7148 62.1121 50.0000
v  -58.7148 62.1121 0.0000
v  -60.4449 53.8418 50.0000
v  -60.4449 53.8418 0.0000
v  -59.9200 55.2971 24.6756
v  -60.0426 53.6810 24.6756
v  -59.9513 -105.5055 24.6756
v  70.0992 53.6810 24.6756
v  70.0078 -105.5055 24.6756
v  69.9692 55.2971 24.6756
v  68.2523 63.2077 24.6756
v  55.6914 76.8829 24.6756
v  63.3625 70.4724 24.6756
v  45.6306 82.2312 24.6756
v  33.5714 86.3091 24.6756
v  5.0246 89.8212 24.6756
v  19.9056 88.9085 24.6756
v  -45.6422 76.8829 24.6756
v  -9.8564 88.9085 24.6756
v  -23.5222 86.3091 24.6756
v  -35.5813 82.2312 24.6756
v  -53.3133 70.4724 24.6756
v  -58.2031 63.2077 24.6756
# 81 vertices

vn 0.0000 -1.0000 -0.0000
vn 1.0000 0.0000 -0.0000
vn 0.0000 1.0000 0.0000
vn -1.0000 0.0000 -0.0000
vn 0.0000 0.0000 -1.0000
vn 0.0000 0.0000 1.0000
vn -1.0000 -0.0000 0.0000
vn 0.0000 -0.0000 1.0000
vn 0.9246 0.3810 0.0000
vn 0.9788 0.2048 0.0000
vn 0.7544 0.6564 0.0000
vn 0.5722 0.8201 0.0000
vn 0.4084 0.9128 0.0000
vn 0.2630 0.9648 0.0000
vn 0.1288 0.9917 0.0000
vn -0.1288 0.9917 0.0000
vn -0.2630 0.9648 0.0000
vn -0.4084 0.9128 0.0000
vn -0.5722 0.8201 0.0000
vn -0.7544 0.6564 0.0000
vn -0.9246 0.3810 0.0000
vn -0.9788 0.2048 0.0000
vn -0.0000 -0.0000 1.0000
# 23 vertex normals

vt 0.0000 0.0000 0.0000
vt 1.0000 0.0000 0.0000
vt 1.0000 1.0000 0.0000
vt 0.0000 1.0000 0.0000
vt 63.7148 72.1121 50.0000
vt 65.4449 63.8418 50.0000
vt 65.4449 63.8418 0.0000
vt 63.7148 72.1121 0.0000
vt 58.7873 79.7070 50.0000
vt 58.7873 79.7070 0.0000
vt 51.0571 86.4090 50.0000
vt 51.0571 86.4090 0.0000
vt 40.9188 92.0004 50.0000
vt 40.9188 92.0004 0.0000
vt 28.7668 96.2637 50.0000
vt 28.7668 96.2637 0.0000
vt 14.9956 98.9812 50.0000
vt 14.9956 98.9812 0.0000
vt -0.0000 99.9354 50.0000
vt -0.0000 99.9354 0.0000
vt -14.9957 98.9812 50.0000
vt -14.9957 98.9812 0.0000
vt -28.7668 96.2637 50.0000
vt -28.7668 96.2637 0.0000
vt -40.9188 92.0004 50.0000
vt -40.9188 92.0004 0.0000
vt -51.0572 86.4090 50.0000
vt -51.0572 86.4090 0.0000
vt -58.7873 79.7070 50.0000
vt -58.7873 79.7070 0.0000
vt -63.7148 72.1121 50.0000
vt -63.7148 72.1121 0.0000
vt -65.4449 63.8418 50.0000
vt -65.4449 63.8418 0.0000
vt -64.9200 65.2971 24.6756
vt -65.0426 63.6810 24.6756
vt -64.9513 -95.5055 24.6756
vt 65.0992 63.6810 24.6756
vt 65.0078 -95.5055 24.6756
vt 64.9692 65.2971 24.6756
vt 63.2523 73.2077 24.6756
vt 50.6914 86.8829 24.6756
vt 58.3625 80.4724 24.6756
vt 40.6306 92.2312 24.6756
vt 28.5714 96.3091 24.6756
vt 0.0246 99.8212 24.6756
vt 14.9056 98.9085 24.6756
vt -50.6422 86.8829 24.6756
vt -14.8564 98.9085 24.6756
vt -28.5222 96.3091 24.6756
vt -40.5813 92.2312 24.6756
vt -58.3133 80.4724 24.6756
vt -63.2031 73.2077 24.6756
# 53 texture coords

g FensterJugendstil2Gliedrig
usemtl wire_198225087
s 8
f 1/1/1 2/2/1 3/3/1 4/4/1 
s 16
f 2/1/2 5/2/2 6/3/2 3/4/2 
s 32
f 5/1/3 7/2/3 8/3/3 6/4/3 
s 64
f 7/1/4 1/2/4 4/3/4 8/4/4 
s 2
f 9/2/5 10/3/5 11/4/5 12/1/5 
s 4
f 13/1/6 14/2/6 15/3/6 16/4/6 
s 8
f 9/1/2 12/2/2 14/3/2 13/4/2 
s 16
f 12/1/3 11/2/3 15/3/3 14/4/3 
s 32
f 11/1/7 10/2/7 16/3/7 15/4/7 
s 64
f 10/1/1 9/2/1 13/3/1 16/4/1 
s 2
f 17/2/5 18/3/5 19/4/5 20/1/5 
s 4
f 21/1/8 22/2/8 23/3/8 24/4/8 
s 8
f 17/1/1 20/2/1 22/3/1 21/4/1 
s 16
f 20/1/2 19/2/2 23/3/2 22/4/2 
s 32
f 19/1/3 18/2/3 24/3/3 23/4/3 
s 64
f 18/1/4 17/2/4 21/3/4 24/4/4 
s 2
f 25/2/5 26/3/5 27/4/5 28/1/5 
s 4
f 29/1/8 30/2/8 31/3/8 32/4/8 
s 8
f 25/1/1 28/2/1 30/3/1 29/4/1 
s 16
f 28/1/2 27/2/2 31/3/2 30/4/2 
s 32
f 27/1/3 26/2/3 32/3/3 31/4/3 
s 64
f 26/1/4 25/2/4 29/3/4 32/4/4 
s 1
f 33/5/9 34/6/10 35/7/10 36/8/9 
s 3
f 37/9/11 33/5/9 36/8/9 38/10/11 
s 2
f 39/11/12 37/9/11 38/10/11 40/12/12 
f 41/13/13 39/11/12 40/12/12 42/14/13 
f 43/15/14 41/13/13 42/14/13 44/16/14 
f 45/17/15 43/15/14 44/16/14 46/18/15 
f 47/19/3 45/17/15 46/18/15 48/20/3 
f 49/21/16 47/19/3 48/20/3 50/22/16 
f 51/23/17 49/21/16 50/22/16 52/24/17 
f 53/25/18 51/23/17 52/24/17 54/26/18 
f 55/27/19 53/25/18 54/26/18 56/28/19 
f 57/29/20 55/27/19 56/28/19 58/30/20 
f 59/31/21 57/29/20 58/30/20 60/32/21 
f 61/33/22 59/31/21 60/32/21 62/34/22 
s 1
f 63/35/23 64/36/23 65/37/23 66/38/8 
f 65/37/23 67/39/8 66/38/8 
f 66/38/8 68/40/8 69/41/8 70/42/8 
f 69/41/8 71/43/8 70/42/8 
f 70/42/8 72/44/8 73/45/8 74/46/8 
f 73/45/8 75/47/8 74/46/8 
f 66/38/8 70/42/8 74/46/8 76/48/8 
f 74/46/8 77/49/8 78/50/8 76/48/8 
f 78/50/8 79/51/8 76/48/8 
f 63/35/23 66/38/8 76/48/8 80/52/8 
f 81/53/8 63/35/23 80/52/8 
# 42 polygons - 5 triangles

