# 3ds Max Wavefront OBJ Exporter v0.97b - (c)2007 guruware
# File Created: 12.04.2013 16:53:07

#
# object FensterStandard4Gliedrig
#

v  -9.9206 40.0573 -3.3500
v  59.8147 40.0573 -3.3500
v  59.8147 40.0573 -9.8500
v  -9.9206 40.0573 -9.8500
v  -9.9206 -40.0573 -3.3500
v  -9.9206 -40.0573 -9.8500
v  59.8147 -40.0573 -3.3500
v  59.8147 -40.0573 -9.8500
v  -3.2808 -33.4176 -3.3500
v  53.1749 -33.4176 -3.3500
v  53.1749 -33.4176 -9.8500
v  -3.2808 -33.4176 -9.8500
v  -3.2808 33.4176 -3.3500
v  -3.2808 33.4176 -9.8500
v  53.1749 33.4176 -3.3500
v  53.1749 33.4176 -9.8500
v  23.0416 33.4017 -3.3500
v  26.9676 33.4017 -3.3500
v  26.9676 33.4017 -9.8500
v  23.0416 33.4017 -9.8500
v  23.0416 -33.4575 -3.3500
v  23.0416 -33.4575 -9.8500
v  26.9676 -33.4575 -3.3500
v  26.9676 -33.4575 -9.8500
v  -3.1755 1.6568 -3.3500
v  53.1755 1.6568 -3.3500
v  53.1755 1.6568 -9.8500
v  -3.1755 1.6568 -9.8500
v  -3.1755 -1.3328 -3.3500
v  -3.1755 -1.3328 -9.8500
v  53.1755 -1.3328 -3.3500
v  53.1755 -1.3328 -9.8500
v  54.4925 34.7183 -6.6091
v  -4.7223 34.7183 -6.6091
v  -4.7223 -34.8849 -6.6091
v  54.4925 -34.8849 -6.6091
# 36 vertices

vn 0.0000 1.0000 0.0000
vn -1.0000 0.0000 -0.0000
vn 0.0000 -1.0000 -0.0000
vn 1.0000 0.0000 -0.0000
vn 0.0000 0.0000 -1.0000
vn 0.0000 -0.0000 1.0000
# 6 vertex normals

g FensterStandard4Gliedrig
usemtl wire_153228214
s 1
f 1//1 2//1 3//1 4//1 
s 4
f 5//2 1//2 4//2 6//2 
s 2
f 7//3 5//3 6//3 8//3 
s 4
f 2//4 7//4 8//4 3//4 
s 1
f 9//1 10//1 11//1 12//1 
s 4
f 13//4 9//4 12//4 14//4 
s 2
f 15//3 13//3 14//3 16//3 
s 4
f 10//2 15//2 16//2 11//2 
s 1
f 17//1 18//1 19//1 20//1 
s 4
f 21//2 17//2 20//2 22//2 
s 2
f 23//3 21//3 22//3 24//3 
s 4
f 18//4 23//4 24//4 19//4 
s 1
f 25//1 26//1 27//1 28//1 
s 4
f 29//2 25//2 28//2 30//2 
s 2
f 31//3 29//3 30//3 32//3 
s 4
f 26//4 31//4 32//4 27//4 
s 16
f 16//5 14//5 4//5 3//5 
f 4//5 14//5 12//5 6//5 
f 6//5 12//5 11//5 8//5 
f 3//5 8//5 11//5 16//5 
f 22//5 20//5 19//5 24//5 
f 30//5 28//5 27//5 32//5 
f 13//6 15//6 2//6 1//6 
f 9//6 13//6 1//6 5//6 
f 10//6 9//6 5//6 7//6 
f 10//6 7//6 2//6 15//6 
f 18//6 17//6 21//6 23//6 
f 26//6 25//6 29//6 31//6 
s 1
f 33//6 34//6 35//6 36//6 
# 29 polygons

